<svg id="Слой_1" data-name="Слой 1" xmlns="http://www.w3.org/2000/svg" viewBox="0 0 275.45 63.34"><defs><style>.cls-1,.cls-3,.cls-4{fill:#8dbe29;}.cls-2,.cls-3,.cls-4{isolation:isolate;}.cls-3,.cls-4{font-size:53.48px;font-family:Arciform, Arciform Sans;}.cls-4{letter-spacing:0.02em;}.cls-5{letter-spacing:0.01em;}</style></defs><title>logo_Bexen</title><path class="cls-1" d="M55.08,180.48s7.75-4,18.33-17S86.15,138,85.14,134.23s-3.92-10-13.25-13.46-19,1.11-20.49,4.14.58,2.24.92,1.86A14.35,14.35,0,0,1,58.91,123c3.88-1,7-.24,11.12,2.23a12.47,12.47,0,0,1,5.72,8.42c.17,1.42.38,4.89-.77,6.87s-2,1.92-2,1.92-1.46.45-1.75-.18-.47-3.61-1-4.62-1.81-4.46-3.75-5.92a5.82,5.82,0,0,0-3.72-1.24,2.15,2.15,0,0,0-1.76,2,5,5,0,0,0,.55,2.95c.31.54,1.84,2.13,2.6,3.49s2.26,4.75,1.92,6.91-.59,3.83.13,5.32,2.41,3.48,2.77,4.65a5.84,5.84,0,0,1-.09,4.82c-1,2-3.16,7.62-7.08,12.4S55.19,180.15,55.08,180.48Z" transform="translate(-11.52 -119.52)"/><path class="cls-1" d="M41.8,180.48s-7.75-4-18.34-17S10.73,138,11.74,134.23s3.93-10,13.27-13.46,19,1.11,20.48,4.14-.58,2.24-.91,1.86A14.43,14.43,0,0,0,38,123c-3.87-1-7-.24-11.13,2.23a12.52,12.52,0,0,0-5.71,8.42c-.17,1.42-.37,4.89.77,6.87S24,142.42,24,142.42s1.45.45,1.76-.18.46-3.61,1-4.62,1.81-4.46,3.75-5.92a5.77,5.77,0,0,1,3.66-1.24,2.17,2.17,0,0,1,1.76,2,5,5,0,0,1-.57,2.95c-.29.54-1.83,2.13-2.6,3.49s-2.25,4.75-1.92,6.91.6,3.83-.13,5.32-2.4,3.48-2.76,4.65a5.84,5.84,0,0,0,.09,4.82c1,2,3.16,7.62,7.08,12.4S41.7,180.15,41.8,180.48Z" transform="translate(-11.52 -119.52)"/><g class="cls-2"><text class="cls-3" transform="translate(98.8 49.8)">B</text><text class="cls-4" transform="translate(128.65 49.8)">E<tspan class="cls-5" x="28.5" y="0">X</tspan></text><text class="cls-3" transform="translate(189.99 49.8)">EEN</text></g></svg>