<svg id="Слой_1" data-name="Слой 1" xmlns="http://www.w3.org/2000/svg" viewBox="0 0 49.9 51.2"><defs><style>.cls-1{fill:#679dc1;}.cls-2{fill:#fff;}</style></defs><title>scype_1</title><path class="cls-1" d="M52.83,41.52A12.14,12.14,0,0,1,40.5,53.46a12.44,12.44,0,0,1-8-2.88A24.81,24.81,0,0,1,28,51C14.54,51,3.64,40.44,3.64,27.41a22.84,22.84,0,0,1,1.09-7,11.6,11.6,0,0,1-1.8-6.21A12.14,12.14,0,0,1,15.26,2.26a12.59,12.59,0,0,1,7.13,2.2A25,25,0,0,1,28,3.83c13.45,0,24.35,10.56,24.35,23.58A22.67,22.67,0,0,1,51,35.2,11.55,11.55,0,0,1,52.83,41.52Z" transform="translate(-2.93 -2.26)"/><path class="cls-2" d="M20.33,37.71A13.28,13.28,0,0,0,27,39.6c3.83,0,6.06-2,6.06-5,0-2.7-1.55-4.25-5.46-5.75C22.91,27.22,20,24.77,20,20.69c0-4.51,3.73-7.86,9.36-7.86a13.2,13.2,0,0,1,6.41,1.41l-1,3a11.56,11.56,0,0,0-5.5-1.37c-3.95,0-5.45,2.36-5.45,4.34,0,2.71,1.76,4,5.76,5.59,4.89,1.89,7.39,4.25,7.39,8.5,0,4.47-3.31,8.34-10.14,8.34a15,15,0,0,1-7.4-1.85Z" transform="translate(-2.93 -2.26)"/></svg>