<svg id="Слой_1" data-name="Слой 1" xmlns="http://www.w3.org/2000/svg" viewBox="0 0 50.53 52.04"><defs><style>.cls-1{fill:#679dc1;}.cls-2{font-size:37.03px;fill:#f9f9f9;font-family:Arciform, Arciform Sans;}</style></defs><title>scype</title><path class="cls-1" d="M52,40.19A13.28,13.28,0,0,1,30.07,50.27a26.34,26.34,0,0,1-3.46.23C13.1,50.5,2.15,39.94,2.15,26.91A22.57,22.57,0,0,1,3,20.84,13.28,13.28,0,0,1,22.2,3.71a25.56,25.56,0,0,1,4.41-.38c13.51,0,24.46,10.56,24.46,23.58a22.89,22.89,0,0,1-.94,6.49A13.15,13.15,0,0,1,52,40.19Z" transform="translate(-1.47 -1.43)"/><text class="cls-2" transform="translate(12.11 39.26) scale(1.65 1)">S</text></svg>